<?xml version="1.0" encoding="UTF-8"?>
<svg version="1.1" xmlns="http://www.w3.org/2000/svg" width="250" height="139">
<path d="M0 0 C82.5 0 165 0 250 0 C250 45.87 250 91.74 250 139 C167.5 139 85 139 0 139 C0 93.13 0 47.26 0 0 Z " fill="#0E374F" transform="translate(0,0)"/>
<path d="M0 0 C27.39 0 54.78 0 83 0 C83 10.56 83 21.12 83 32 C82.34 32 81.68 32 81 32 C81 22.1 81 12.2 81 2 C54.93 2 28.86 2 2 2 C2 28.4 2 54.8 2 82 C28.07 82 54.14 82 81 82 C81 72.1 81 62.2 81 52 C81.66 52 82.32 52 83 52 C83 62.56 83 73.12 83 84 C55.61 84 28.22 84 0 84 C0 56.28 0 28.56 0 0 Z " fill="#97A4AC" transform="translate(32,29)"/>
<path d="M0 0 C27.39 0 54.78 0 83 0 C83 10.56 83 21.12 83 32 C82.34 32 81.68 32 81 32 C81 22.1 81 12.2 81 2 C77.42599365 2.01571045 77.42599365 2.01571045 73.77978516 2.03173828 C65.920762 2.06482947 58.06173581 2.08695022 50.20266151 2.10362434 C45.43617706 2.11407612 40.66976379 2.12826064 35.90332031 2.15087891 C31.30625073 2.17255773 26.70924976 2.18455812 22.11213303 2.18975449 C20.35539036 2.19345919 18.59865159 2.20069322 16.84193802 2.21146011 C14.38754312 2.22590924 11.93343427 2.22798073 9.47900391 2.22705078 C8.74748611 2.23424133 8.01596832 2.24143188 7.26228333 2.24884033 C2.22810432 2.22810432 2.22810432 2.22810432 0 0 Z " fill="#8C9BA5" transform="translate(32,29)"/>
<path d="M0 0 C1.65 0 3.3 0 5 0 C7.58509897 4.71400401 6.99087872 8.90548213 6 14 C5.67 14.66 5.34 15.32 5 16 C2.625 16.1875 2.625 16.1875 0 16 C-2.07324138 12.89013793 -2.27392186 12.10891613 -2.25 8.5625 C-2.25515625 7.80066406 -2.2603125 7.03882812 -2.265625 6.25390625 C-1.9747292 3.78556982 -1.22975656 2.142314 0 0 Z " fill="#ADB8BF" transform="translate(79,63)"/>
<path d="M0 0 C2.97 0 5.94 0 9 0 C10.125 6.75 10.125 6.75 9 9 C7.35 9 5.7 9 4 9 C4 11.31 4 13.62 4 16 C2.68 16 1.36 16 0 16 C0 10.72 0 5.44 0 0 Z " fill="#728795" transform="translate(87,63)"/>
<path d="M0 0 C1.32 0 2.64 0 4 0 C4.33895656 1.72807318 4.67091525 3.45751974 5 5.1875 C5.185625 6.15042969 5.37125 7.11335938 5.5625 8.10546875 C5.96877612 10.7934206 6.07933572 13.28771019 6 16 C5.34 16 4.68 16 4 16 C4 14.68 4 13.36 4 12 C2.68 12 1.36 12 0 12 C0 13.32 0 14.64 0 16 C-0.99 16 -1.98 16 -3 16 C-2.52013969 10.43109483 -1.70084819 5.32932432 0 0 Z " fill="#E4E4E4" transform="translate(145,63)"/>
<path d="M0 0 C2.31 0 4.62 0 7 0 C7.33 1.65 7.66 3.3 8 5 C7.34 5 6.68 5 6 5 C6 4.34 6 3.68 6 3 C4.68 3 3.36 3 2 3 C2 4.32 2 5.64 2 7 C3.65 7 5.3 7 7 7 C8.125 13.75 8.125 13.75 7 16 C4.69 16 2.38 16 0 16 C-0.33 14.35 -0.66 12.7 -1 11 C-0.01 11 0.98 11 2 11 C2 11.66 2 12.32 2 13 C3.32 13 4.64 13 6 13 C6 11.68 6 10.36 6 9 C4.02 9 2.04 9 0 9 C-1.125 2.25 -1.125 2.25 0 0 Z " fill="#C4CACE" transform="translate(176,63)"/>
<path d="M0 0 C2.31 0 4.62 0 7 0 C7 0.99 7 1.98 7 3 C5.68 3 4.36 3 3 3 C3 4.32 3 5.64 3 7 C4.32 7 5.64 7 7 7 C7 7.66 7 8.32 7 9 C5.68 9 4.36 9 3 9 C3 10.32 3 11.64 3 13 C4.32 13 5.64 13 7 13 C7 13.99 7 14.98 7 16 C4.69 16 2.38 16 0 16 C0 10.72 0 5.44 0 0 Z " fill="#B7C0C7" transform="translate(165,63)"/>
<path d="M0 0 C0.99 0 1.98 0 3 0 C3 4.29 3 8.58 3 13 C4.65 13 6.3 13 8 13 C8 13.99 8 14.98 8 16 C5.36 16 2.72 16 0 16 C0 10.72 0 5.44 0 0 Z " fill="#B1BBC1" transform="translate(154,63)"/>
<path d="M0 0 C2.97 0 5.94 0 9 0 C9 0.99 9 1.98 9 3 C8.01 3 7.02 3 6 3 C6 7.29 6 11.58 6 16 C5.01 16 4.02 16 3 16 C3 11.38 3 6.76 3 2 C2.01 2 1.02 2 0 2 C0 1.34 0 0.68 0 0 Z " fill="#B1BBC3" transform="translate(66,63)"/>
<path d="M0 0 C1.98 0 3.96 0 6 0 C6 1.32 6 2.64 6 4 C5.34 4 4.68 4 4 4 C4 3.34 4 2.68 4 2 C3.01 2 2.02 2 1 2 C1 5.96 1 9.92 1 14 C1.99 14 2.98 14 4 14 C4 13.34 4 12.68 4 12 C4.66 12 5.32 12 6 12 C6 13.32 6 14.64 6 16 C3.125 16.1875 3.125 16.1875 0 16 C-2.07324138 12.89013793 -2.27392186 12.10891613 -2.25 8.5625 C-2.25515625 7.80066406 -2.2603125 7.03882812 -2.265625 6.25390625 C-1.9747292 3.78556982 -1.22975656 2.142314 0 0 Z " fill="#C6CCD0" transform="translate(112,63)"/>
<path d="M0 0 C2.31 0 4.62 0 7 0 C7 0.33 7 0.66 7 1 C5.35 1 3.7 1 2 1 C2 2.65 2 4.3 2 6 C3.65 6 5.3 6 7 6 C7.33 4.68 7.66 3.36 8 2 C8 3.98 8 5.96 8 8 C6.02 8 4.04 8 2 8 C2 9.98 2 11.96 2 14 C1.34 14 0.68 14 0 14 C0 9.38 0 4.76 0 0 Z " fill="#E8E7E8" transform="translate(88,64)"/>
<path d="M0 0 C2.97 0 5.94 0 9 0 C9 0.66 9 1.32 9 2 C8.01 2 7.02 2 6 2 C6 6.29 6 10.58 6 15 C5.34 15 4.68 15 4 15 C4 10.71 4 6.42 4 2 C2.68 2 1.36 2 0 2 C0 1.34 0 0.68 0 0 Z " fill="#D3D6DA" transform="translate(131,63)"/>
<path d="M0 0 C0.99 0.33 1.98 0.66 3 1 C3 4.3 3 7.6 3 11 C2.01 11 1.02 11 0 11 C-1.49297212 8.01405576 -1.11755228 5.29146376 -1 2 C-0.67 1.34 -0.34 0.68 0 0 Z " fill="#2B4F63" transform="translate(80,66)"/>
<path d="M0 0 C1.32 0 2.64 0 4 0 C5.125 6.75 5.125 6.75 4 9 C2.68 9 1.36 9 0 9 C-0.84454356 5.62182575 -1.10844919 3.32534757 0 0 Z " fill="#ABB6BD" transform="translate(145,63)"/>
<path d="M0 0 C2.31 0 4.62 0 7 0 C7.33 1.65 7.66 3.3 8 5 C7.34 5 6.68 5 6 5 C6 4.34 6 3.68 6 3 C4.68 3 3.36 3 2 3 C1.67 4.32 1.34 5.64 1 7 C0.34 7 -0.32 7 -1 7 C-0.67 4.69 -0.34 2.38 0 0 Z " fill="#A5B1B9" transform="translate(176,63)"/>
<path d="M0 0 C1.32 0.33 2.64 0.66 4 1 C3.01 1 2.02 1 1 1 C1 4.96 1 8.92 1 13 C1.99 13.33 2.98 13.66 4 14 C-0.875 13.125 -0.875 13.125 -2 12 C-2.16796875 10.0390625 -2.16796875 10.0390625 -2.1875 7.625 C-2.20167969 6.83351563 -2.21585937 6.04203125 -2.23046875 5.2265625 C-2 3 -2 3 0 0 Z " fill="#D7DADC" transform="translate(79,64)"/>
<path d="M0 0 C0.33 1.32 0.66 2.64 1 4 C2.65 4 4.3 4 6 4 C4.68 4.33 3.36 4.66 2 5 C2 6.32 2 7.64 2 9 C1.01 9 0.02 9 -1 9 C-0.67 6.03 -0.34 3.06 0 0 Z " fill="#A1AEB7" transform="translate(143,70)"/>
<path d="M0 0 C1.32 0 2.64 0 4 0 C4 1.65 4 3.3 4 5 C2.68 5 1.36 5 0 5 C0 3.35 0 1.7 0 0 Z " fill="#2E5166" transform="translate(90,65)"/>
<path d="M0 0 C0.99 0 1.98 0 3 0 C3 0.66 3 1.32 3 2 C3.66 2 4.32 2 5 2 C5.33 1.34 5.66 0.68 6 0 C6 0.99 6 1.98 6 3 C3.69 3.66 1.38 4.32 -1 5 C-0.67 3.35 -0.34 1.7 0 0 Z " fill="#446375" transform="translate(113,65)"/>
<path d="M0 0 C1.32 0 2.64 0 4 0 C4.33 1.32 4.66 2.64 5 4 C3.35 4 1.7 4 0 4 C0 2.68 0 1.36 0 0 Z " fill="#163E55" transform="translate(178,66)"/>
</svg>
